<?xml version="1.0" encoding="UTF-8" standalone="no"?><!DOCTYPE svg PUBLIC "-//W3C//DTD SVG 1.1//EN" "http://www.w3.org/Graphics/SVG/1.1/DTD/svg11.dtd"><svg width="208px" height="241px" version="1.1" xmlns="http://www.w3.org/2000/svg" xmlns:xlink="http://www.w3.org/1999/xlink" xml:space="preserve" xmlns:serif="http://www.serif.com/" style="fill-rule:evenodd;clip-rule:evenodd;stroke-linejoin:round;stroke-miterlimit:2;"><path d="M97.954,114.47c5.055,8.939 -6.249,11.71 -11.554,12.22c-8.038,0.785 -9.703,-3.869 -8.132,-9.716c0.515,-2.093 1.659,-3.976 3.275,-5.394c1.617,-1.418 3.629,-2.302 5.764,-2.532c2.102,-0.194 4.217,0.212 6.1,1.172c1.884,0.959 3.46,2.432 4.547,4.25Z" style="fill:#fff;fill-rule:nonzero;"/><path d="M129.511,97.933c-5.875,45.141 73.326,35.747 71.818,71.675c7.812,-10.203 11.172,-37.921 -11.828,-52.189c-20.492,-12.721 -47.194,-5.76 -59.99,-19.486Z" style="fill:#fff;fill-rule:nonzero;"/><path d="M175.13,80.913c-0.516,-0.479 -1.047,-0.95 -1.562,-1.421c0.523,0.479 1.046,0.981 1.562,1.421Z" style="fill:#fff;fill-rule:nonzero;"/><path d="M193.541,113.815l-0.047,-0.071c-0.715,-1.334 -1.53,-2.612 -2.437,-3.822c-2.671,-3.634 -6.501,-6.238 -10.852,-7.377c-2.896,-0.751 -5.858,-1.219 -8.843,-1.397c-3.024,-0.22 -6.11,-0.345 -9.227,-0.51c-6.249,-0.345 -12.648,-0.989 -18.898,-2.778c-1.562,-0.447 -3.125,-0.934 -4.632,-1.522c-0.781,-0.283 -1.508,-0.589 -2.281,-0.919c-0.774,-0.329 -1.563,-0.706 -2.344,-1.106c-2.939,-1.618 -5.661,-3.603 -8.101,-5.91c-4.813,-4.497 -8.594,-9.598 -12.383,-14.542c-3.572,-4.963 -7.405,-9.731 -11.484,-14.283c-4.024,-4.46 -8.78,-8.192 -14.062,-11.034c-5.469,-2.767 -11.409,-4.471 -17.507,-5.023c6.326,-0.69 12.726,0.094 18.702,2.292c6.031,2.351 11.543,5.868 16.227,10.351c3.057,2.881 5.927,5.956 8.593,9.206c19.843,-3.925 35.937,-0.44 48.303,6.325l0.281,0.141c3.937,2.145 7.625,4.719 11,7.676c0.539,0.471 1.07,0.941 1.563,1.42c2.634,2.431 5.085,5.054 7.335,7.848l0.172,0.228c7.305,9.291 10.914,18.952 10.922,24.807Z" style="fill:#fff;fill-rule:nonzero;"/><path d="M193.536,113.814l-0.047,-0.093l0.047,0.093Z" style="fill:#fff;fill-rule:nonzero;"/><path d="M71.447,49.333c5.062,0.737 10.226,2.762 13.554,6.623c3.328,3.862 4.554,8.884 5.515,13.664c0.781,3.704 1.399,7.479 2.852,10.987c0.703,1.711 1.734,3.209 2.594,4.826c0.71,1.342 2.007,2.551 2.507,3.987c0.09,0.206 0.123,0.432 0.097,0.655c-0.026,0.224 -0.111,0.436 -0.245,0.616c-1.766,1.962 -6.531,-0.22 -8.328,-1.098c-3.106,-1.547 -5.889,-3.678 -8.195,-6.279c-7.211,-8.044 -10.937,-19.62 -10.711,-30.159c0.05,-1.28 0.17,-2.556 0.36,-3.822Z" style="fill:#fff;fill-rule:nonzero;"/><path d="M156.119,140.055c-10.938,30.662 38.67,51.231 20.085,82.403c19.07,-7.911 28.124,-31.807 20.21,-50.768c-6.922,-16.645 -27.39,-22.712 -40.295,-31.635Z" style="fill:#fff;fill-rule:nonzero;"/><path d="M90.511,180.138c2.981,-2.257 6.239,-4.116 9.695,-5.533c3.496,-1.406 7.123,-2.458 10.828,-3.139c7.351,-1.405 14.625,-1.75 20.734,-4.222c3.018,-1.184 5.796,-2.913 8.195,-5.101c2.322,-2.168 4.1,-4.857 5.187,-7.848c1.114,-3.156 1.566,-6.51 1.328,-9.849c-0.276,-3.588 -1.084,-7.114 -2.398,-10.462c2.723,2.846 4.706,6.321 5.773,10.12c1.067,3.798 1.185,7.803 0.344,11.658c-0.956,4.082 -3.019,7.817 -5.961,10.791c-2.912,2.882 -6.423,5.08 -10.281,6.435c-3.682,1.297 -7.521,2.09 -11.413,2.355c-3.75,0.314 -7.375,0.4 -10.938,0.612c-7.202,0.303 -14.316,1.714 -21.093,4.183Z" style="fill:#fff;fill-rule:nonzero;"/><path d="M160.479,234.041c-1.102,0.879 -2.203,1.813 -3.414,2.629c-1.219,0.807 -2.496,1.52 -3.821,2.135c-2.757,1.351 -5.79,2.042 -8.859,2.017c-8.312,-0.157 -14.187,-6.373 -17.624,-13.397c-2.344,-4.787 -3.961,-9.959 -6.742,-14.518c-3.977,-6.522 -10.781,-11.772 -18.75,-10.799c-3.249,0.408 -6.296,1.875 -8.101,4.709c-4.75,7.4 2.071,17.767 10.766,16.3c0.739,-0.113 1.463,-0.314 2.156,-0.597c0.69,-0.295 1.335,-0.689 1.914,-1.169c1.214,-1.016 2.13,-2.346 2.648,-3.846c0.571,-1.564 0.698,-3.256 0.367,-4.889c-0.357,-1.706 -1.359,-3.206 -2.797,-4.183c1.672,0.786 2.974,2.193 3.633,3.924c0.684,1.782 0.86,3.719 0.508,5.596c-0.341,1.955 -1.199,3.782 -2.484,5.289c-0.683,0.776 -1.472,1.45 -2.344,2.001c-0.864,0.546 -1.79,0.986 -2.758,1.311c-1.962,0.674 -4.051,0.891 -6.109,0.636c-2.889,-0.414 -5.615,-1.601 -7.89,-3.437c-2.688,-2.135 -4.688,-4.929 -7.117,-7.33c-2.786,-2.936 -6.072,-5.347 -9.703,-7.118c-2.504,-1.105 -5.125,-1.922 -7.812,-2.433c-1.352,-0.283 -2.719,-0.487 -4.086,-0.659c-0.625,-0.063 -3.688,-0.746 -4.117,-0.346c4.225,-3.908 8.832,-7.378 13.749,-10.359c5.05,-3.01 10.471,-5.34 16.125,-6.93c5.862,-1.658 11.993,-2.13 18.038,-1.389c3.112,0.376 6.16,1.167 9.062,2.354c3.042,1.221 5.85,2.963 8.297,5.149c2.423,2.292 4.381,5.035 5.765,8.075c1.251,2.847 2.184,5.823 2.782,8.876c1.781,9.127 1.125,23.277 13.023,25.365c0.62,0.12 1.246,0.209 1.875,0.266l1.945,0.047c1.338,-0.095 2.666,-0.287 3.977,-0.573c2.714,-0.641 5.359,-1.548 7.898,-2.707Z" style="fill:#fff;fill-rule:nonzero;"/><path d="M91.344,224.089l-0.312,-0.244l0.312,0.244Z" style="fill:#fff;fill-rule:nonzero;"/><path d="M80.669,95.28c-0.433,1.672 -1.19,3.243 -2.227,4.623c-1.929,2.515 -4.483,4.477 -7.405,5.689c-2.629,1.138 -5.413,1.873 -8.258,2.182c-0.617,0.078 -1.258,0.126 -1.875,0.173c-1.802,0.068 -3.535,0.715 -4.945,1.845c-1.41,1.129 -2.423,2.683 -2.891,4.433c-0.214,0.87 -0.373,1.754 -0.476,2.645c-0.282,2.307 -0.328,4.708 -0.578,7.612c-0.612,4.941 -2.035,9.746 -4.211,14.221c-2.828,5.98 -6,10.798 -5.266,17.689c0.485,4.473 2.766,7.471 5.797,10.563c5.468,5.619 17.71,8.13 14.976,21.974c-1.648,8.264 -15.288,16.936 -34.46,19.965c1.907,-0.29 -2.445,-7.659 -2.718,-8.13c-2.055,-3.234 -4.305,-6.279 -5.938,-9.787c-3.203,-6.804 -4.687,-14.675 -3.375,-22.131c1.383,-7.848 7.164,-13.859 11.969,-19.855c5.718,-7.134 11.718,-16.481 13.046,-25.741c0.313,-2.245 0.531,-5.054 1.031,-7.848c0.477,-3.095 1.442,-6.094 2.859,-8.884c0.968,-1.829 2.242,-3.478 3.766,-4.873c0.795,-0.741 1.319,-1.728 1.489,-2.804c0.17,-1.076 -0.024,-2.178 -0.551,-3.129l-30.562,-55.218l43.897,54.417c0.5,0.631 1.132,1.143 1.851,1.501c0.719,0.358 1.508,0.552 2.31,0.569c0.802,0.017 1.598,-0.143 2.332,-0.469c0.734,-0.327 1.387,-0.812 1.913,-1.42c0.556,-0.652 0.872,-1.476 0.893,-2.334c0.021,-0.858 -0.253,-1.696 -0.775,-2.375c-2.868,-3.68 -5.899,-7.432 -8.836,-11.12l-11.047,-13.734l-22.171,-27.421l-30.233,-38.108l33.077,35.652l23.6,26.212l11.774,13.137c3.906,4.419 7.812,8.696 11.718,13.342l0.64,0.785l0.141,1.216c0.191,1.649 0.095,3.319 -0.281,4.936Z" style="fill:#fff;fill-rule:nonzero;"/><path d="M90.782,223.722c-2.122,-1.647 -4.009,-3.577 -5.61,-5.737c1.718,2.057 3.593,3.975 5.61,5.737Z" style="fill:#fff;fill-rule:nonzero;"/></svg>